<svg width="213" height="246" viewBox="0 0 213 246" fill="none" xmlns="http://www.w3.org/2000/svg">
<path d="M134 242.5C127 243.5 106 243.431 106 243.431V173.5L125 156.5L208.5 130C208.5 130 171.5 215.5 146.5 236.5C142.354 239.983 141 241.5 134 242.5Z" fill="black" stroke="black" stroke-width="5"/>
<path d="M79.5 242.5C86.5 243.5 107.5 243.431 107.5 243.431L107.5 173.5L88.5 156.5L4.99999 130C4.99999 130 42 215.5 67 236.5C71.1461 239.983 72.5 241.5 79.5 242.5Z" fill="black" stroke="black" stroke-width="5"/>
<rect x="104" y="173" width="7" height="70" fill="black"/>
<path d="M88 155.711L5 130L106.5 191L107 173.355L88 155.711Z" fill="#F5F5F5" stroke="black"/>
<path d="M126 155.711L208.5 130L107.5 191L107 173.355L126 155.711Z" fill="#F5F5F5" stroke="black"/>
<line x1="103" y1="241.975" x2="113" y2="241.975" stroke="black" stroke-width="2.05"/>
<rect x="72" y="140" width="70" height="28" fill="#F5F5F5"/>
<path d="M97.6122 163.864C103.128 168 107.782 168 107.782 168V1.00001H100.824L103.5 5.13623L101.894 18.579H82.625C82.625 18.579 81.1151 15.9602 79.4135 15.4768C78.4108 15.1919 76.7372 15.4768 76.7372 15.4768L79.4135 24.2663L101.894 34.0898V37.192H58.0032C58.0032 37.192 57.628 38.8348 58.0032 39.7771C58.4277 40.8432 59.0574 41.3953 60.1442 41.8452C61.297 42.3224 63.3558 41.8452 63.3558 41.8452L72.9904 45.9814V40.8112H86.3718L94.4006 61.4923V67.6966H81.5545L79.4135 75.452H67.1026L66.0321 79.0712H78.3429L73.5256 98.2012H66.0321C66.0321 98.2012 66.9683 105.227 66.0321 109.576C65.3994 112.515 64.8849 114.201 63.3558 116.814C61.749 119.56 60.4091 120.886 58.0032 123.019C55.2265 125.479 53.396 126.664 49.9744 128.189C46.4286 129.769 44.2356 130.516 40.3397 130.774C36.7701 131.01 34.7027 130.612 31.2404 129.74C28.4231 129.03 24.2821 127.155 24.2821 127.155L58.0032 156.625C58.0032 156.625 60.9484 159.428 63.3558 160.245C66.3141 161.248 68.3458 160.991 71.3846 160.245C74.3758 159.51 76.0891 158.662 78.3429 156.625C80.673 154.52 81.7636 152.872 82.625 149.904C83.4715 146.988 82.625 142.149 82.625 142.149H90.1186C90.1186 142.149 90.3023 158.382 97.6122 163.864Z" fill="black" stroke="black"/>
<path d="M117.952 163.864C112.436 168 107.782 168 107.782 168V1.00001H114.74L112.064 5.13623L113.67 18.579H132.939C132.939 18.579 134.449 15.9602 136.151 15.4768C137.153 15.1919 138.827 15.4768 138.827 15.4768L136.151 24.2663L113.67 34.0898V37.192H157.561C157.561 37.192 157.936 38.8348 157.561 39.7771C157.136 40.8432 156.507 41.3953 155.42 41.8452C154.267 42.3224 152.208 41.8452 152.208 41.8452L142.574 45.9814V40.8112H129.192L121.163 61.4923V67.6966H134.01L136.151 75.452H148.462L149.532 79.0712H137.221L142.038 98.2012H149.532C149.532 98.2012 148.596 105.227 149.532 109.576C150.165 112.515 150.679 114.201 152.208 116.814C153.815 119.56 155.155 120.886 157.561 123.019C160.338 125.479 162.168 126.664 165.59 128.189C169.135 129.769 171.328 130.516 175.224 130.774C178.794 131.01 180.861 130.612 184.324 129.74C187.141 129.03 191.282 127.155 191.282 127.155L157.561 156.625C157.561 156.625 154.616 159.428 152.208 160.245C149.25 161.248 147.218 160.991 144.179 160.245C141.188 159.51 139.475 158.662 137.221 156.625C134.891 154.52 133.8 152.872 132.939 149.904C132.093 146.988 132.939 142.149 132.939 142.149H125.446C125.446 142.149 125.262 158.382 117.952 163.864Z" fill="black" stroke="black"/>
<circle cx="39.8045" cy="105.375" r="19.8045" fill="black"/>
<circle cx="107.247" cy="110.728" r="22.657" fill="black" stroke="#F5F5F5" stroke-width="5"/>
<circle cx="174.689" cy="105.375" r="19.8045" fill="black"/>
<path d="M118 233.333C118 236.111 113.75 240 107 240C100.25 240 96 235.7 96 233.333C96 230.966 96 230 96 230C96 230 103.505 230 107 230C110.495 230 118 230 118 230C118 230 118 230.966 118 233.333Z" fill="#F5F5F5"/>
<path d="M96 210V205H101V206.667H108.5V205.556H111V210H108.5V208.333H101V210H96Z" fill="#F5F5F5"/>
<path d="M96 221V216H101V217.667H108.5V216.556H111V221H108.5V219.333H101V221H96Z" fill="#F5F5F5"/>
<path d="M96.7381 196C96.7381 196 92.2065 183.011 93.1222 180.719C94.0379 178.427 119.678 178.427 119.983 180.719C120.288 183.011 116.367 196 116.367 196H96.7381Z" fill="black" stroke="#F5F5F5" stroke-width="2"/>
<path d="M118 199V204H113V202.333H105.5V203.444H103V199H105.5V200.667H113V199H118Z" fill="#F5F5F5"/>
<path d="M118 211V216H113V214.333H105.5V215.444H103V211H105.5V212.667H113V211H118Z" fill="#F5F5F5"/>
<path d="M118 221V226H113V224.333H105.5V225.444H103V221H105.5V222.667H113V221H118Z" fill="#F5F5F5"/>
<mask id="path-20-inside-1_21_4890" fill="white">
<rect x="103" y="183" width="7" height="10" rx="1"/>
</mask>
<rect x="103" y="183" width="7" height="10" rx="1" fill="black" stroke="#F5F5F5" stroke-width="4" mask="url(#path-20-inside-1_21_4890)"/>
<path d="M101.414 188C101.414 188 97.6591 169.02 99.5153 167.294C101.372 165.569 112.138 165.569 113.623 167.294C115.108 169.02 111.724 188 111.724 188H101.414Z" fill="black" stroke="#F5F5F5" stroke-width="2"/>
</svg>
