<svg width="202" height="40" viewBox="0 0 202 40" fill="none" xmlns="http://www.w3.org/2000/svg">
<path d="M0 36.748V3.25203C0 3.25203 4.72999 1.92141 7.78685 1.30081C19.6525 -1.10812 38.4762 0.650406 38.4762 0.650406V2.92683H40.7664C40.7664 2.92683 56.8058 1.15344 67.1043 0.650406C80.5124 -0.00450894 88.0446 0.279374 101.458 0.650406C113.538 0.984565 132.376 2.27642 132.376 2.27642V0H144.057V3.90244C144.057 3.90244 152.165 3.97786 157.34 4.55285C164.906 5.39353 169.096 6.65192 176.578 8.45528C183.496 10.1225 194.213 13.3333 194.213 13.3333C194.213 13.3333 197.649 14.3089 200.626 17.2358C201.084 17.6861 202 18.7889 202 20.1626C202 21.5363 201.313 22.6016 200.626 23.0894C197.42 25.3659 196.773 25.6683 194.213 26.9919C187.604 30.4089 176.578 32.5203 176.578 32.5203C176.578 32.5203 164.876 34.4915 157.34 35.4472C152.161 36.104 144.057 36.748 144.057 36.748V40H132.376V38.0488C132.376 38.0488 113.536 39.0822 101.458 39.3496L101.21 39.3551C87.9505 39.6486 80.4334 39.815 67.1043 39.3496C56.8121 38.9902 40.7664 37.7236 40.7664 37.7236H38.4762V39.3496C38.4762 39.3496 19.6874 40.4255 7.78685 38.374C4.73559 37.848 0 36.748 0 36.748Z" />
<circle r="8" transform="matrix(-1 0 0 1 21 20)" />
<circle r="8" transform="matrix(-1 0 0 1 75 20)" />
<circle r="8" transform="matrix(-1 0 0 1 127 20)" />
<circle r="8" transform="matrix(-1 0 0 1 180 20)" />
</svg>
