<svg width="149" height="38" viewBox="0 0 149 38" fill="none" xmlns="http://www.w3.org/2000/svg">
<path d="M0 31.784V4.85241C0 4.85241 11.7962 3.78127 19.3573 3.14788C29.5997 2.28986 45.5915 1.10244 45.5915 1.10244C45.5915 1.10244 63.7509 0.272338 75.3915 0.0797258C86.2325 -0.0996573 103.154 0.0797258 103.154 0.0797258C103.154 0.0797258 110.799 0.98389 115.634 2.12516C122.096 3.65029 131.935 7.57965 131.935 7.57965C131.935 7.57965 138.717 10.1471 142.632 13.0341C145.266 14.9761 149 17.4659 149 18.8295C149 20.1932 145.229 22.4025 142.632 24.284C138.669 27.1562 131.935 30.0794 131.935 30.0794C131.935 30.0794 122.114 34.2907 115.634 35.8748C110.804 37.0558 103.154 37.9203 103.154 37.9203C103.154 37.9203 86.2325 38.0997 75.3915 37.9203C63.7509 37.7277 45.5915 36.8976 45.5915 36.8976C45.5915 36.8976 29.5759 36.1203 19.3573 34.8521C11.7775 33.9115 0 31.784 0 31.784Z" />
<circle r="8" transform="matrix(-1 0 0 1 21 19)" />
<circle r="8" transform="matrix(-1 0 0 1 74 19)" />
<circle r="8" transform="matrix(-1 0 0 1 127 19)" />
</svg>
