<svg width="100" height="46" viewBox="0 0 100 46" fill="none" xmlns="http://www.w3.org/2000/svg">
<mask id="mask0_21_13973" style="mask-type:alpha" maskUnits="userSpaceOnUse" x="0" y="0" width="100" height="46">
<rect width="100" height="46" fill="#C4C4C4"/>
</mask>
<g mask="url(#mask0_21_13973)">
<path d="M3 34.784V7.85241C3 7.85241 14.7962 6.78127 22.3573 6.14788C32.5997 5.28986 48.5915 4.10244 48.5915 4.10244C48.5915 4.10244 66.7509 3.27234 78.3915 3.07973C89.2325 2.90034 106.154 3.07973 106.154 3.07973C106.154 3.07973 113.799 3.98389 118.634 5.12516C125.096 6.65029 134.935 10.5797 134.935 10.5797C134.935 10.5797 141.717 13.1471 145.632 16.0341C148.266 17.9761 152 20.4659 152 21.8295C152 23.1932 148.229 25.4025 145.632 27.284C141.669 30.1562 134.935 33.0794 134.935 33.0794C134.935 33.0794 125.114 37.2907 118.634 38.8748C113.804 40.0558 106.154 40.9203 106.154 40.9203C106.154 40.9203 89.2325 41.0997 78.3915 40.9203C66.7509 40.7277 48.5915 39.8976 48.5915 39.8976C48.5915 39.8976 32.5759 39.1203 22.3573 37.8521C14.7775 36.9115 3 34.784 3 34.784Z" fill="#FF0055"/>
<circle r="8" transform="matrix(-1 0 0 1 77 22)" fill="white"/>
<circle r="8" transform="matrix(-1 0 0 1 24 22)" fill="white"/>
</g>
</svg>
