<svg width="48" height="46" viewBox="0 0 48 46" fill="none" xmlns="http://www.w3.org/2000/svg">
<mask id="mask0_21_13966" style="mask-type:alpha" maskUnits="userSpaceOnUse" x="0" y="0" width="48" height="46">
<rect width="48" height="46" fill="#C4C4C4"/>
</mask>
<g mask="url(#mask0_21_13966)">
<path d="M3.59423 32.25C2.96654 31.1826 2.65274 8.88273 3.59423 8.14286C4.53571 7.40298 12.6954 6.39039 15.9888 5.9822C22.5471 5.16934 32.7868 4.04442 32.7868 4.04442C32.7868 4.04442 44.4144 3.258 51.8679 3.07553C58.8096 2.90559 69.6444 3.07553 69.6444 3.07553C69.6444 3.07553 74.5393 3.93211 77.6357 5.01331C81.7734 6.45817 88.0732 10.1807 88.0732 10.1807C88.0732 10.1807 92.4156 12.6131 94.9228 15.3481C96.6094 17.1879 99 19.5467 99 20.8385C99 22.1304 96.5852 24.2235 94.9228 26.0059C92.3852 28.7269 88.0732 31.4963 88.0732 31.4963C88.0732 31.4963 81.7845 35.4859 77.6357 36.9867C74.5427 38.1055 69.6444 38.9245 69.6444 38.9245C69.6444 38.9245 58.8096 39.0944 51.8679 38.9245C44.4144 38.742 32.7868 37.9556 32.7868 37.9556C32.7868 37.9556 22.5319 37.2192 15.9888 36.0178C11.1354 35.1266 4.22191 33.3174 3.59423 32.25Z" fill="#FF0055"/>
<circle r="8" transform="matrix(-1 0 0 1 24 21)" fill="white"/>
</g>
</svg>
