<svg width="149" height="39" viewBox="0 0 149 39" fill="none" xmlns="http://www.w3.org/2000/svg">
<path d="M4.37158 27.0717C4.37158 27.0717 0.61498 23.9077 0.14123 20.5756C-0.0358122 19.3304 -0.0580144 18.5665 0.14123 17.3275C0.642163 14.2126 4.37158 11.5532 4.37158 11.5532C4.37158 11.5532 8.5204 9.59275 11.2459 8.66606C14.6831 7.4974 28.9605 6.13979 31.0757 6.13979C33.7197 6.13979 55.3872 3.08603 70.9997 1.80904C82.246 0.889171 96.3818 -0.0745637 99.819 0.00456407C103.256 0.0836919 109.383 -0.12387 115.418 1.08725C120.449 2.09681 128.109 5.0571 128.109 5.0571C128.109 5.0571 136.849 8.15555 141.858 11.9141C144.343 13.7783 147.41 16.6058 147.939 17.3275C148.468 18.0493 149.048 18.9561 148.997 20.2147C148.951 21.3492 148.732 21.6583 147.939 22.741C147.146 23.8237 144.322 25.8332 141.858 27.4326C136.785 30.7264 128.109 33.207 128.109 33.207C128.109 33.207 120.418 35.7265 115.418 36.8159C109.372 38.1336 103.256 38.7636 99.819 38.9813C96.1174 39.2157 76.0232 37.1768 70.9997 36.8159C65.9761 36.455 37.1568 34.0539 31.0757 33.207C24.7302 32.3232 14.3372 31.0416 11.2459 29.9589C8.52525 29.006 4.37158 27.0717 4.37158 27.0717Z" />
<circle r="8" transform="matrix(-1 0 0 1 21 20)" />
<circle r="8" transform="matrix(-1 0 0 1 75 20)" />
<circle r="8" transform="matrix(-1 0 0 1 127 21)" />
</svg>
