<svg width="100" height="46" viewBox="0 0 100 46" fill="none" xmlns="http://www.w3.org/2000/svg">
<mask id="mask0_21_13982" style="mask-type:alpha" maskUnits="userSpaceOnUse" x="0" y="0" width="100" height="46">
<rect width="100" height="46" fill="#C4C4C4"/>
</mask>
<g mask="url(#mask0_21_13982)">
<path d="M7.37158 30.0717C7.37158 30.0717 3.61498 26.9077 3.14123 23.5756C2.96419 22.3304 2.94199 21.5665 3.14123 20.3275C3.64216 17.2126 7.37158 14.5532 7.37158 14.5532C7.37158 14.5532 11.5204 12.5927 14.2459 11.6661C17.6831 10.4974 31.9605 9.13979 34.0757 9.13979C36.7197 9.13979 58.3872 6.08603 73.9997 4.80904C85.246 3.88917 99.3818 2.92544 102.819 3.00456C106.256 3.08369 112.383 2.87613 118.418 4.08725C123.449 5.09681 131.109 8.0571 131.109 8.0571C131.109 8.0571 139.849 11.1556 144.858 14.9141C147.343 16.7783 150.41 19.6058 150.939 20.3275C151.468 21.0493 152.048 21.9561 151.997 23.2147C151.951 24.3492 151.732 24.6583 150.939 25.741C150.146 26.8237 147.322 28.8332 144.858 30.4326C139.785 33.7264 131.109 36.207 131.109 36.207C131.109 36.207 123.418 38.7265 118.418 39.8159C112.372 41.1336 106.256 41.7636 102.819 41.9813C99.1174 42.2157 79.0232 40.1768 73.9997 39.8159C68.9761 39.455 40.1568 37.0539 34.0757 36.207C27.7302 35.3232 17.3372 34.0416 14.2459 32.9589C11.5252 32.006 7.37158 30.0717 7.37158 30.0717Z" fill="#FF0055"/>
<circle r="8" transform="matrix(-1 0 0 1 78 23)" fill="white"/>
<circle r="8" transform="matrix(-1 0 0 1 24 23)" fill="white"/>
</g>
</svg>
