<svg width="260" height="71" viewBox="0 0 260 71" fill="none" xmlns="http://www.w3.org/2000/svg">
<path d="M8.17611 56.5127L1 44.7373L48.2234 44.527V33.1721H49.8438V29.3872H52.3902V27.4947H50.7698V22.4481H60.4923V24.5508H63.7331V26.233H66.5109V29.3872H79.0112V27.0141L74.613 18.4528H69.7518V28.3358H68.5943V17.4015H67.2054V14.2473H68.5943V11.9343H69.7518V1H71.1407V11.9343H73.9185V12.7754H72.7611V14.2473H75.5389V17.822L79.7478 26.233H82.0206V18.4528H93.132V27.4947H95.9098V33.1721H117.438V44.527H236.886V48.9428H217.209V51.8866H258.877C258.877 51.8866 259.154 54.342 258.877 55.8818C258.517 57.8835 257.854 58.9335 256.794 60.7182C255.505 62.8859 254.64 64.1141 252.627 65.7648C250.877 67.1996 249.668 67.7992 247.534 68.7086C245.386 69.6241 241.747 70.3908 241.747 70.3908H12.1114V64.9237L8.17611 56.5127Z" fill="black"/>
<path d="M1 44.7373L8.17611 56.5127L12.1114 64.9237V70.3908H241.747C241.747 70.3908 245.386 69.6241 247.534 68.7086C249.668 67.7992 250.877 67.1996 252.627 65.7648C254.64 64.1141 255.505 62.8859 256.794 60.7182C257.854 58.9335 258.517 57.8835 258.877 55.8818C259.154 54.342 258.877 51.8866 258.877 51.8866H217.209V48.9428H236.886V44.527H117.438V33.1721H95.9098V27.4947H93.132V18.4528H82.0206V26.233H79.0112V29.3872H66.5109V26.233H63.7331V24.5508H60.4923V22.4481H50.7698V27.4947H52.3902V29.3872H49.8438V33.1721H48.2234V44.527L1 44.7373ZM68.5943 28.3358V17.4015H67.2054V14.2473H68.5943V11.9343H69.7518V1H71.1407V11.9343H73.9185V12.7754H72.7611V14.2473H75.5389V17.822L80.1687 27.0741L79.4742 27.9152L74.613 18.4528H69.7518V28.3358H68.5943Z" stroke="black"/>
</svg>
