<svg width="154" height="34" viewBox="0 0 154 34" fill="none" xmlns="http://www.w3.org/2000/svg">
<path d="M153 32.7279H2.66221H2.29283V32.1545H1.55407V30.6255H5.24787L6.7254 29.8609V28.1407H1V26.8028H6.7254V25.0826L5.24787 24.3181H2.29283V22.789H8.20292V11.13H20.0231L23.7169 25.0826H30.9198L32.3973 24.3181V21.26H39.2309V23.3624L72.4751 21.26L80.9708 8.26301H83.5565V1H84.8493V8.26301H86.8809C86.8809 8.26301 87.4027 7.24973 87.9891 6.92509C88.7522 6.50254 89.4422 6.50254 90.2053 6.92509C90.7917 7.24973 91.3135 8.26301 91.3135 8.26301H92.6063L94.4532 21.26H110.891C110.891 21.26 111.643 20.1177 112.368 19.7309C113.458 19.1498 114.45 19.0892 115.508 19.7309C116.169 20.1322 116.801 21.26 116.801 21.26H119.756C119.756 21.26 120.387 20.1322 121.049 19.7309C122.106 19.0892 123.073 19.2041 124.188 19.7309C124.978 20.1041 125.851 21.26 125.851 21.26H128.067C128.067 21.26 128.707 20.148 129.36 19.7309C130.525 18.9855 131.61 19.1714 132.869 19.7309C133.718 20.1081 134.716 21.26 134.716 21.26H142.288L145.428 22.4068L148.937 24.8915L151.707 28.523L153 32.7279Z" fill="black" stroke="black"/>
</svg>
