<svg width="101" height="46" viewBox="0 0 101 46" fill="none" xmlns="http://www.w3.org/2000/svg">
<mask id="mask0_21_14033" style="mask-type:alpha" maskUnits="userSpaceOnUse" x="0" y="0" width="101" height="46">
<rect width="101" height="46" fill="#C4C4C4"/>
</mask>
<g mask="url(#mask0_21_14033)">
<path d="M3 40.748V7.25203C3 7.25203 7.72999 5.92141 10.7868 5.30081C22.6525 2.89188 41.4762 4.65041 41.4762 4.65041V6.92683H43.7664C43.7664 6.92683 59.8058 5.15344 70.1043 4.65041C83.5124 3.99549 91.0446 4.27937 104.458 4.65041C116.538 4.98456 135.376 6.27642 135.376 6.27642V4H147.057V7.90244C147.057 7.90244 155.165 7.97786 160.34 8.55285C167.906 9.39353 172.096 10.6519 179.578 12.4553C186.496 14.1225 197.213 17.3333 197.213 17.3333C197.213 17.3333 200.649 18.3089 203.626 21.2358C204.084 21.6861 205 22.7889 205 24.1626C205 25.5363 204.313 26.6016 203.626 27.0894C200.42 29.3659 199.773 29.6683 197.213 30.9919C190.604 34.4089 179.578 36.5203 179.578 36.5203C179.578 36.5203 167.876 38.4915 160.34 39.4472C155.161 40.104 147.057 40.748 147.057 40.748V44H135.376V42.0488C135.376 42.0488 116.536 43.0822 104.458 43.3496L104.21 43.3551C90.9505 43.6486 83.4334 43.815 70.1043 43.3496C59.8121 42.9902 43.7664 41.7236 43.7664 41.7236H41.4762V43.3496C41.4762 43.3496 22.6874 44.4255 10.7868 42.374C7.73559 41.848 3 40.748 3 40.748Z" fill="#FF0055"/>
<circle r="8" transform="matrix(-1 0 0 1 78 24)" fill="white"/>
<circle r="8" transform="matrix(-1 0 0 1 24 24)" fill="white"/>
</g>
</svg>
