<svg width="206" height="71" viewBox="0 0 206 71" fill="none" xmlns="http://www.w3.org/2000/svg">
<path d="M4.12511 70L1 54.5704H13.3268V50.9296H5.34043V50.0628H14.7157V49.196H25.6536V51.6231H23.5702V54.5704H34.1609V52.8367H43.3626V47.1156H37.1123V45.5553H43.3626V42.4347H41.6264V39.8342H43.3626V35.5H37.8068V33.9397H43.3626V23.191H44.5779V39.8342H46.8349V42.4347H44.5779V48.5025H45.2723H51.6962V36.1935H63.8494V46.5955H72.183V48.5025H84.3362V28.0452H86.7668V21.804H84.3362V19.7236H85.3779V16.0829H86.7668V1H87.9821V16.0829H90.2392V19.7236H93.017V17.8166H92.1489V12.9623H96.8366V17.8166H96.1421V19.7236H98.7464V21.804H93.5379L95.274 28.0452H97.5311V23.191H99.9617L102.392 25.4447V28.0452H104.129V36.1935H108.295V39.8342H114.025V48.5025H127.914V53.01H131.039V54.5704H142.151V51.4497H143.019V50.4095H139.72V45.902H143.019V45.0352H147.012V46.5955H148.748V45.0352H153.436V46.5955H154.477V45.902H156.04V46.5955H158.297V47.2889H169.929V48.5025H158.297V49.3693H157.255V51.4497H158.297V54.5704H174.964V52.1432H172.36V49.3693H183.124V50.4095H192.5V51.4497H185.381L183.992 52.1432L185.381 54.5704H205L195.972 70H4.12511Z" fill="black" stroke="black"/>
</svg>
