<svg width="161" height="44" viewBox="0 0 161 44" fill="none" xmlns="http://www.w3.org/2000/svg">
<path d="M6.42822 34.1376H1V32.789L3.90798 30.2844H15.346V27.5872H10.6933V26.8165H15.346V25.6606H10.6933V24.8899H15.346C15.346 24.8899 16.5092 23.7339 17.8663 23.3486C19.2233 22.9633 22.7129 23.156 23.1006 23.3486C23.4883 23.5413 24.0699 24.1193 24.0699 24.1193V30.2844H41.3239V23.3486H34.9264V22.578H35.8957V21.6147H46.7521V20.844H47.7215V14.6789H48.3031V13.9083H49.2724C49.2724 13.9083 49.213 13.4327 49.2724 13.1376C49.5693 11.6621 52.7825 11.6778 53.1497 13.1376C53.2415 13.5026 53.1497 14.1009 53.1497 14.1009H56.2515V15.4495H57.8025L64.0061 14.6789L64.2 15.4495L57.8025 16.2202V17.7615H58.7718L63.8123 16.9908L64.0061 17.7615L58.7718 18.5321V21.6147H71.7607L74.4748 10.055H80.0969V9.09174H83.9742L87.2699 21.6147H90.1779L96.7693 1H103.361L104.912 6.97248H113.054L115.574 28.7431L127.4 27.9725V20.4587C127.4 20.4587 128.264 19.618 128.951 19.3028C130.326 18.6722 131.474 18.6298 132.828 19.3028C133.786 19.7786 134.767 21.2294 134.767 21.2294V22L141.358 20.6514L141.552 21.422L134.767 22.9633V27.2018L159 25.0826L144.654 43H6.42822V34.1376Z" fill="black" stroke="black"/>
</svg>
