<svg width="96" height="36" viewBox="0 0 96 36" fill="none" xmlns="http://www.w3.org/2000/svg">
<path d="M0.594225 29.25C-0.0334556 28.1826 -0.347261 5.88273 0.594225 5.14286C1.53571 4.40298 9.69544 3.39039 12.9888 2.9822C19.5471 2.16934 29.7868 1.04442 29.7868 1.04442C29.7868 1.04442 41.4144 0.258004 48.8679 0.0755297C55.8096 -0.0944122 66.6444 0.0755297 66.6444 0.0755297C66.6444 0.0755297 71.5393 0.932107 74.6357 2.01331C78.7734 3.45817 85.0732 7.18073 85.0732 7.18073C85.0732 7.18073 89.4156 9.61309 91.9228 12.3481C93.6094 14.1879 96 16.5467 96 17.8385C96 19.1304 93.5852 21.2235 91.9228 23.0059C89.3852 25.7269 85.0732 28.4963 85.0732 28.4963C85.0732 28.4963 78.7845 32.4859 74.6357 33.9867C71.5427 35.1055 66.6444 35.9245 66.6444 35.9245C66.6444 35.9245 55.8096 36.0944 48.8679 35.9245C41.4144 35.742 29.7868 34.9556 29.7868 34.9556C29.7868 34.9556 19.5319 34.2192 12.9888 33.0178C8.13542 32.1266 1.22191 30.3174 0.594225 29.25Z" />
<circle r="8" transform="matrix(-1 0 0 1 21 18)" />
<circle r="8" transform="matrix(-1 0 0 1 74 18)" />
</svg>
