<svg width="101" height="47" viewBox="0 0 101 47" fill="none" xmlns="http://www.w3.org/2000/svg">
<path d="M4.6 46.3075L1 33.0202H4.6V29.535H13.8571V33.0202H34.6857V26.7033H36.7429V23.4359H40.3429V20.6042H50.6286V23.4359H54.7429V5.79214H53.2V4.70301H54.7429V2.96042H53.2V2.08912H54.7429V1H56.0286V2.08912H57.3143V2.96042H56.0286V4.70301H57.3143V5.79214H56.0286V22.5646H57.8286V18.8616H60.1429V11.6734H64.5143V12.5447H73.5143V13.6338H64.5143V15.5942H69.6572V18.426H79.9429V15.5942H81.7429V18.426H85.8571V20.6042H84.3143L86.8857 30.4063H100L88.6857 46.3075H4.6Z" fill="black" stroke="black"/>
</svg>
